<svg width="32" height="32" viewBox="0 0 32 32" fill="none" xmlns="http://www.w3.org/2000/svg">
<path d="M8 16L16 8L24 16L16 24L8 16Z" fill="white"/>
<path d="M29.39 14.5274L17.474 2.60937C17.0831 2.21916 16.5533 2 16.001 2C15.4487 2 14.9189 2.21916 14.528 2.60937L2.609 14.5274C2.21879 14.9183 1.99963 15.448 1.99963 16.0004C1.99963 16.5527 2.21879 17.0825 2.609 17.4734L14.527 29.3914C14.9179 29.7816 15.4477 30.0007 16 30.0007C16.5523 30.0007 17.0821 29.7816 17.473 29.3914L29.391 17.4734C29.7812 17.0825 30.0004 16.5527 30.0004 16.0004C30.0004 15.448 29.7812 14.9183 29.391 14.5274H29.39ZM16 28.0364L3.965 16.0004L16 3.96437L28.036 16.0004L16 28.0364Z" fill="white"/>
</svg>
