<svg width="64" height="64" viewBox="0 0 64 64" fill="none" xmlns="http://www.w3.org/2000/svg">
<path d="M48 7.01805C43.4 4.16233 37.9 2.48828 32 2.48828C26.1 2.48828 20.6 4.16233 16 7.01805V56.944C20.6 59.7997 26.1 61.4738 32 61.4738C37.9 61.4738 43.4 59.7997 48 56.944V7.01805Z" fill="#F9F9F9"/>
<path d="M48 7.01953V56.9455C56.4 51.8249 62 42.3714 62 31.9333C62 21.4951 56.4 12.2386 48 7.01953ZM16 7.01953C7.6 12.2386 2 21.692 2 32.0317C2 42.3714 7.6 51.8249 16 57.044V7.01953ZM42.9 31.6379C42.5 31.4409 42.4 31.047 42.5 30.8501L43.5 27.305L40 27.9943C39.9 27.9943 39.5 27.9943 39.4 27.305L39.1 26.1233L36.7 28.8806C36.7 28.8806 35.1 30.5546 35.6 27.9943L36.6 22.5783L34.7 23.563C34.6 23.563 34.2 23.6615 33.7 22.6768L32 19.2302L30.2 22.4798C29.7 23.4646 29.3 23.3661 29.2 23.3661L27.3 22.3814L28.3 27.7974C28.8 30.3577 27.2 28.6837 27.2 28.6837L24.8 25.9264L24.5 27.1081C24.3 27.7974 24 27.7974 23.9 27.7974L20.4 27.1081L21.4 30.6531C21.4 30.9485 21.4 31.244 21 31.4409L20 32.0317C20 32.0317 24 35.1829 25.3 36.2661C25.6 36.463 26.2 37.0539 26 37.7432L25.5 39.1218L31 38.334C31.3 38.334 31.9 38.334 31.8 39.2203L31.5 44.8333H32.5L32.2 39.2203C32.2 38.334 32.8 38.334 33 38.334L38.5 39.1218L38 37.7432C37.8 37.0539 38.4 36.463 38.7 36.2661C40 35.1829 44 32.0317 44 32.0317L42.9 31.6379Z" fill="#ED4C5C"/>
</svg>
