<svg width="64" height="64" viewBox="0 0 64 64" fill="none" xmlns="http://www.w3.org/2000/svg">
<path d="M32 2.3125V12.1598H12V31.8545H2C2 48.201 15.4 61.3965 32 61.3965C48.6 61.3965 62 48.201 62 31.8545C62 15.5079 48.6 2.3125 32 2.3125Z" fill="#2A5F9E"/>
<path d="M32 2.3125C27.3 2.3125 22.9 3.39571 18.9 5.2667V11.1751H11V18.9545H5C3.1 22.8934 2 27.2262 2 31.8545H14V17.0835L26 31.8545H32V24.469L23.6 14.1293H32V2.3125Z" fill="white"/>
<path d="M15.4 14.1309L30 31.8561H32V27.0309L21.4 14.1309H15.4Z" fill="#ED4C5C"/>
<path d="M32 5.26758H18.9C12.9 8.1233 7.9 13.047 5 18.9554V31.8554H11V11.176H32V5.26758Z" fill="#ED4C5C"/>
<path d="M8 35.4981L10.2 32.8394L9.5 36.2859L13 36.3844L9.9 37.96L12 40.7172L8.9 39.3386L8 42.6867L7.1 39.3386L4 40.7172L6.1 37.96L3 36.3844L6.5 36.2859L5.8 32.8394L8 35.4981ZM52 20.2348L53.8 18.0684L53.2 20.8256L56 20.9241L53.5 22.2042L55.2 24.3706L52.7 23.189L52 25.9462L51.3 23.189L48.8 24.3706L50.5 22.2042L48 20.9241L50.8 20.8256L50.2 18.0684L52 20.2348ZM52 39.9294L53.8 37.763L53.2 40.5203L56 40.6187L53.5 41.8989L55.2 44.0653L52.7 42.8836L52 45.6409L51.3 42.8836L48.8 44.0653L50.5 41.8989L48 40.6187L50.8 40.5203L50.2 37.763L52 39.9294ZM42 26.1432L43.8 23.9768L43.2 26.734L46 26.8325L43.5 28.1126L45.2 30.279L42.7 29.0974L42 31.8546L41.3 29.0974L38.8 30.279L40.5 28.1126L38 26.8325L40.8 26.734L40.2 23.9768L42 26.1432Z" fill="white"/>
</svg>
