<svg width="64" height="64" viewBox="0 0 64 64" fill="none" xmlns="http://www.w3.org/2000/svg">
<path d="M31.8 2.78516C18.8 2.78516 7.70001 11.0569 3.60001 22.4798H60.2C56 11.0569 44.9 2.78516 31.8 2.78516Z" fill="#F2B200"/>
<path d="M31.8 61.8704C44.9 61.8704 56 53.6972 60.1 42.1758H3.60001C7.70001 53.6972 18.8 61.8704 31.8 61.8704Z" fill="#83BF4F"/>
<path d="M3.59999 22.4805C2.49999 25.5331 1.89999 28.8812 1.89999 32.3278C1.89999 35.7744 2.49999 39.1225 3.59999 42.1751H60.2C61.3 39.1225 61.9 35.7744 61.9 32.3278C61.9 28.8812 61.3 25.5331 60.2 22.4805H3.59999Z" fill="white"/>
<path d="M31.8 40.2049C36.2183 40.2049 39.8 36.6779 39.8 32.3271C39.8 27.9763 36.2183 24.4492 31.8 24.4492C27.3817 24.4492 23.8 27.9763 23.8 32.3271C23.8 36.6779 27.3817 40.2049 31.8 40.2049Z" fill="#428BC1"/>
<path d="M31.8 39.2218C35.666 39.2218 38.8 36.1356 38.8 32.3287C38.8 28.5217 35.666 25.4355 31.8 25.4355C27.934 25.4355 24.8 28.5217 24.8 32.3287C24.8 36.1356 27.934 39.2218 31.8 39.2218Z" fill="white"/>
<path d="M29.2 26.4183C29.4761 26.4183 29.7 26.1979 29.7 25.926C29.7 25.654 29.4761 25.4336 29.2 25.4336C28.9238 25.4336 28.7 25.654 28.7 25.926C28.7 26.1979 28.9238 26.4183 29.2 26.4183Z" fill="#428BC1"/>
<path d="M27.6 27.305C27.8761 27.305 28.1 27.0846 28.1 26.8127C28.1 26.5408 27.8761 26.3203 27.6 26.3203C27.3239 26.3203 27.1 26.5408 27.1 26.8127C27.1 27.0846 27.3239 27.305 27.6 27.305Z" fill="#428BC1"/>
<path d="M26.3 28.5843C26.5761 28.5843 26.8 28.3639 26.8 28.092C26.8 27.82 26.5761 27.5996 26.3 27.5996C26.0238 27.5996 25.8 27.82 25.8 28.092C25.8 28.3639 26.0238 28.5843 26.3 28.5843Z" fill="#428BC1"/>
<path d="M25.4 30.1605C25.6761 30.1605 25.9 29.9401 25.9 29.6681C25.9 29.3962 25.6761 29.1758 25.4 29.1758C25.1239 29.1758 24.9 29.3962 24.9 29.6681C24.9 29.9401 25.1239 30.1605 25.4 30.1605Z" fill="#428BC1"/>
<path d="M24.9 31.934C25.1761 31.934 25.4 31.7135 25.4 31.4416C25.4 31.1697 25.1761 30.9492 24.9 30.9492C24.6239 30.9492 24.4 31.1697 24.4 31.4416C24.4 31.7135 24.6239 31.934 24.9 31.934Z" fill="#428BC1"/>
<path d="M24.9 33.7054C25.1761 33.7054 25.4 33.485 25.4 33.2131C25.4 32.9411 25.1761 32.7207 24.9 32.7207C24.6239 32.7207 24.4 32.9411 24.4 33.2131C24.4 33.485 24.6239 33.7054 24.9 33.7054Z" fill="#428BC1"/>
<path d="M25.4 35.4789C25.6761 35.4789 25.9 35.2584 25.9 34.9865C25.9 34.7146 25.6761 34.4941 25.4 34.4941C25.1239 34.4941 24.9 34.7146 24.9 34.9865C24.9 35.2584 25.1239 35.4789 25.4 35.4789Z" fill="#428BC1"/>
<path d="M26.3 37.0531C26.5761 37.0531 26.8 36.8327 26.8 36.5607C26.8 36.2888 26.5761 36.0684 26.3 36.0684C26.0238 36.0684 25.8 36.2888 25.8 36.5607C25.8 36.8327 26.0238 37.0531 26.3 37.0531Z" fill="#428BC1"/>
<path d="M27.6 38.3343C27.8761 38.3343 28.1 38.1139 28.1 37.842C28.1 37.57 27.8761 37.3496 27.6 37.3496C27.3239 37.3496 27.1 37.57 27.1 37.842C27.1 38.1139 27.3239 38.3343 27.6 38.3343Z" fill="#428BC1"/>
<path d="M29.2 39.2211C29.4761 39.2211 29.7 39.0006 29.7 38.7287C29.7 38.4568 29.4761 38.2363 29.2 38.2363C28.9238 38.2363 28.7 38.4568 28.7 38.7287C28.7 39.0006 28.9238 39.2211 29.2 39.2211Z" fill="#428BC1"/>
<path d="M30.9 39.6136C31.1761 39.6136 31.4 39.3932 31.4 39.1213C31.4 38.8493 31.1761 38.6289 30.9 38.6289C30.6239 38.6289 30.4 38.8493 30.4 39.1213C30.4 39.3932 30.6239 39.6136 30.9 39.6136Z" fill="#428BC1"/>
<path d="M32.3 39.2197C32.3 38.9243 32.5 38.7274 32.7 38.6289C33 38.6289 33.2 38.8259 33.3 39.0228C33.3 39.3182 33.1 39.5152 32.9 39.6136C32.5 39.7121 32.3 39.5152 32.3 39.2197Z" fill="#428BC1"/>
<path d="M34.5 39.2211C34.7761 39.2211 35 39.0006 35 38.7287C35 38.4568 34.7761 38.2363 34.5 38.2363C34.2239 38.2363 34 38.4568 34 38.7287C34 39.0006 34.2239 39.2211 34.5 39.2211Z" fill="#428BC1"/>
<path d="M36.1 38.3343C36.3761 38.3343 36.6 38.1139 36.6 37.842C36.6 37.57 36.3761 37.3496 36.1 37.3496C35.8239 37.3496 35.6 37.57 35.6 37.842C35.6 38.1139 35.8239 38.3343 36.1 38.3343Z" fill="#428BC1"/>
<path d="M37.4 37.0531C37.6761 37.0531 37.9 36.8327 37.9 36.5607C37.9 36.2888 37.6761 36.0684 37.4 36.0684C37.1239 36.0684 36.9 36.2888 36.9 36.5607C36.9 36.8327 37.1239 37.0531 37.4 37.0531Z" fill="#428BC1"/>
<path d="M38.3 35.4789C38.5761 35.4789 38.8 35.2584 38.8 34.9865C38.8 34.7146 38.5761 34.4941 38.3 34.4941C38.0238 34.4941 37.8 34.7146 37.8 34.9865C37.8 35.2584 38.0238 35.4789 38.3 35.4789Z" fill="#428BC1"/>
<path d="M38.8 33.7054C39.0761 33.7054 39.3 33.485 39.3 33.2131C39.3 32.9411 39.0761 32.7207 38.8 32.7207C38.5238 32.7207 38.3 32.9411 38.3 33.2131C38.3 33.485 38.5238 33.7054 38.8 33.7054Z" fill="#428BC1"/>
<path d="M38.8 31.934C38.5 31.934 38.3 31.737 38.2 31.5401C38.2 31.2446 38.4 31.0477 38.6 30.9492C38.9 30.9492 39.1 31.1462 39.2 31.3431C39.3 31.6385 39.1 31.8355 38.8 31.934Z" fill="#428BC1"/>
<path d="M38.3 30.1605C38.5761 30.1605 38.8 29.9401 38.8 29.6681C38.8 29.3962 38.5761 29.1758 38.3 29.1758C38.0238 29.1758 37.8 29.3962 37.8 29.6681C37.8 29.9401 38.0238 30.1605 38.3 30.1605Z" fill="#428BC1"/>
<path d="M37.4 28.5843C37.6761 28.5843 37.9 28.3639 37.9 28.092C37.9 27.82 37.6761 27.5996 37.4 27.5996C37.1239 27.5996 36.9 27.82 36.9 28.092C36.9 28.3639 37.1239 28.5843 37.4 28.5843Z" fill="#428BC1"/>
<path d="M36.1 27.305C36.3761 27.305 36.6 27.0846 36.6 26.8127C36.6 26.5408 36.3761 26.3203 36.1 26.3203C35.8239 26.3203 35.6 26.5408 35.6 26.8127C35.6 27.0846 35.8239 27.305 36.1 27.305Z" fill="#428BC1"/>
<path d="M35 26.1233C34.9 26.4187 34.6 26.5172 34.3 26.4187C34 26.3203 33.9 26.0248 34 25.7294C34.1 25.434 34.4 25.3355 34.7 25.434C35 25.6309 35.1 25.9264 35 26.1233ZM33.2 25.5325C33.2 25.8279 32.9 26.0248 32.6 25.9264C32.3 25.9264 32.1 25.6309 32.2 25.3355C32.2 25.0401 32.5 24.8432 32.8 24.9416C33.1 25.0401 33.3 25.3355 33.2 25.5325ZM31.4 25.434C31.4 25.7294 31.2 25.9264 31 26.0248C30.7 26.0248 30.5 25.8279 30.4 25.6309C30.4 25.3355 30.6 25.1386 30.8 25.0401C31.1 24.9416 31.4 25.1386 31.4 25.434Z" fill="#428BC1"/>
<path d="M31.8 33.8038C32.6284 33.8038 33.3 33.1425 33.3 32.3267C33.3 31.5109 32.6284 30.8496 31.8 30.8496C30.9716 30.8496 30.3 31.5109 30.3 32.3267C30.3 33.1425 30.9716 33.8038 31.8 33.8038Z" fill="#428BC1"/>
<path d="M31.8 25.4336L31.6 29.6679L31.8 32.3267L32.1 29.6679L31.8 25.4336ZM30 25.6305L30.9 29.8649L31.8 32.3267L31.4 29.6679L30 25.6305Z" fill="#428BC1"/>
<path d="M28.3 26.3203L30.3 30.1608L31.8 32.3272L30.7 29.8654L28.3 26.3203ZM26.9 27.4035L29.8 30.6531L31.8 32.3272L30.1 30.2592L26.9 27.4035Z" fill="#428BC1"/>
<path d="M25.8 28.8809L29.4 31.2442L31.8 32.3274L29.6 30.7519L25.8 28.8809Z" fill="#428BC1"/>
<path d="M25.1 30.5547L29.2 31.8348L31.8 32.3272L29.3 31.4409L25.1 30.5547ZM24.8 32.3272L29.2 32.5242L31.8 32.3272L29.2 32.1303L24.8 32.3272Z" fill="#428BC1"/>
<path d="M25.1 34.0987L29.3 33.2124L31.8 32.3262L29.2 32.8185L25.1 34.0987ZM25.8 35.7727L29.6 33.9017L31.8 32.3262L29.4 33.4094L25.8 35.7727Z" fill="#428BC1"/>
<path d="M26.9 37.1514L30.1 34.3941L31.8 32.3262L29.8 34.0002L26.9 37.1514ZM28.3 38.333L30.7 34.6895L31.8 32.3262L30.3 34.4926L28.3 38.333Z" fill="#428BC1"/>
<path d="M30 39.0224L31.4 34.985L31.8 32.3262L30.9 34.788L30 39.0224ZM31.8 39.2193L32.1 34.985L31.8 32.3262L31.6 34.985L31.8 39.2193ZM33.6 39.0224L32.8 34.788L31.8 32.3262L32.3 34.985L33.6 39.0224Z" fill="#428BC1"/>
<path d="M35.3 38.333L33.4 34.4926L31.8 32.3262L33 34.788L35.3 38.333ZM36.8 37.1514L33.9 34.0002L31.8 32.3262L33.6 34.3941L36.8 37.1514Z" fill="#428BC1"/>
<path d="M37.9 35.7738L34.3 33.4104L31.8 32.3272L34 33.9028L37.9 35.7738ZM38.6 34.0997L34.5 32.8196L31.8 32.3272L34.4 33.2135L38.6 34.0997ZM38.8 32.3272L34.5 32.0318L31.8 32.3272L34.5 32.5242L38.8 32.3272ZM38.6 30.5547L34.4 31.4409L31.8 32.3272L34.5 31.8348L38.6 30.5547Z" fill="#428BC1"/>
<path d="M37.9 28.8806L34 30.7516L31.8 32.3271L34.3 31.2439L37.9 28.8806ZM36.8 27.502L33.6 30.2592L31.8 32.3271L33.9 30.6531L36.8 27.502Z" fill="#428BC1"/>
<path d="M35.3 26.3203L33 29.9638L31.8 32.3272L33.4 30.1608L35.3 26.3203Z" fill="#428BC1"/>
<path d="M33.7 25.6309L32.3 29.6683L31.8 32.327L32.8 29.8652L33.7 25.6309Z" fill="#428BC1"/>
</svg>
