<svg width="64" height="64" viewBox="0 0 64 64" fill="none" xmlns="http://www.w3.org/2000/svg">
<path d="M2 31.6785C2 44.5785 10.4 55.509 22 59.5464V3.81055C10.4 7.84795 2 18.7785 2 31.6785ZM62 31.6785C62 18.7785 53.7 7.84795 42 3.81055V59.5464C53.7 55.509 62 44.5785 62 31.6785Z" fill="#009106"/>
<path d="M22 59.5466C25.1 60.6298 28.5 61.2207 32 61.2207C35.5 61.2207 38.9 60.6298 42 59.5466V3.81076C38.9 2.72756 35.5 2.13672 32 2.13672C28.5 2.13672 25.1 2.72756 22 3.81076V59.5466Z" fill="white"/>
</svg>
