<svg width="64" height="65" viewBox="0 0 64 65" fill="none" xmlns="http://www.w3.org/2000/svg">
<path d="M48 7.49071C43.3 4.63498 37.9 2.96094 32 2.96094V7.49071H48Z" fill="#ED4C5C"/>
<path d="M32 12.022H53.6C51.9 10.3479 50 8.77234 48 7.49219H32V12.022Z" fill="white"/>
<path d="M32 16.5513H57.3C56.2 14.8772 55 13.4001 53.7 12.0215H32V16.5513Z" fill="#ED4C5C"/>
<path d="M32 21.0806H59.7C59 19.505 58.2 17.9294 57.3 16.5508H32V21.0806Z" fill="white"/>
<path d="M32 25.6098H61.2C60.8 24.0343 60.3 22.5572 59.7 21.0801H32V25.6098Z" fill="#ED4C5C"/>
<path d="M32 30.2388H61.9C61.8 28.6632 61.5 27.1861 61.2 25.709H32V30.2388Z" fill="white"/>
<path d="M61.9 30.2383H32V32.5032H2C2 33.291 2 33.9803 2.1 34.7681H61.9C62 33.9803 62 33.291 62 32.5032C62 31.7154 62 30.9276 61.9 30.2383Z" fill="#ED4C5C"/>
<path d="M2.80001 39.2974H61.2C61.6 37.8203 61.8 36.3432 61.9 34.7676H2.10001C2.20001 36.2447 2.40001 37.8203 2.80001 39.2974Z" fill="white"/>
<path d="M4.29999 43.8286H59.7C60.3 42.3515 60.8 40.8744 61.2 39.2988H2.79999C3.19999 40.8744 3.69999 42.3515 4.29999 43.8286Z" fill="#ED4C5C"/>
<path d="M6.69999 48.3579H57.3C58.2 46.8808 59 45.4037 59.7 43.8281H4.29999C4.99999 45.4037 5.79999 46.8808 6.69999 48.3579Z" fill="white"/>
<path d="M10.3 52.8872H53.7C55 51.5086 56.3 49.933 57.3 48.3574H6.70001C7.70001 50.0315 9.00001 51.5086 10.3 52.8872Z" fill="#ED4C5C"/>
<path d="M15.9 57.4165H48.1C50.2 56.1363 52 54.5608 53.7 52.8867H10.3C12 54.6592 13.9 56.1363 15.9 57.4165Z" fill="white"/>
<path d="M32 62.0462C37.9 62.0462 43.4 60.3722 48.1 57.418H15.9C20.6 60.3722 26.1 62.0462 32 62.0462Z" fill="#ED4C5C"/>
<path d="M16 7.49071C13.9 8.77086 12 10.3464 10.3 12.0205C8.9 13.3991 7.7 14.9747 6.7 16.5503C5.8 18.0273 4.9 19.5044 4.3 21.08C3.7 22.5571 3.2 24.0342 2.8 25.6098C2.4 27.0869 2.2 28.564 2.1 30.1396C2 30.9273 2 31.7151 2 32.5029H32V2.96094C26.1 2.96094 20.7 4.63498 16 7.49071Z" fill="#428BC1"/>
<path d="M25 3.94727L25.5 5.42436H27L25.8 6.4091L26.2 7.8862L25 6.99994L23.8 7.8862L24.2 6.4091L23 5.42436H24.5L25 3.94727ZM29 9.85566L29.5 11.3328H31L29.8 12.3175L30.2 13.7946L29 12.9083L27.8 13.7946L28.2 12.3175L27 11.3328H28.5L29 9.85566ZM21 9.85566L21.5 11.3328H23L21.8 12.3175L22.2 13.7946L21 12.9083L19.8 13.7946L20.2 12.3175L19 11.3328H20.5L21 9.85566ZM25 15.7641L25.5 17.2412H27L25.8 18.2259L26.2 19.703L25 18.8167L23.8 19.703L24.2 18.2259L23 17.2412H24.5L25 15.7641ZM17 15.7641L17.5 17.2412H19L17.8 18.2259L18.2 19.703L17 18.8167L15.8 19.703L16.2 18.2259L15 17.2412H16.5L17 15.7641ZM8.99999 15.7641L9.49999 17.2412H11L9.79999 18.2259L10.2 19.703L8.99999 18.8167L7.79999 19.703L8.19999 18.2259L6.99999 17.2412H8.49999L8.99999 15.7641ZM29 21.6725L29.5 23.1496H31L29.8 24.1343L30.2 25.6114L29 24.7251L27.8 25.6114L28.2 24.1343L27 23.1496H28.5L29 21.6725ZM21 21.6725L21.5 23.1496H23L21.8 24.1343L22.2 25.6114L21 24.7251L19.8 25.6114L20.2 24.1343L19 23.1496H20.5L21 21.6725ZM13 21.6725L13.5 23.1496H15L13.8 24.1343L14.2 25.6114L13 24.7251L11.8 25.6114L12.2 24.1343L11 23.1496H12.5L13 21.6725ZM25 27.5809L25.5 29.058H27L25.8 30.0427L26.2 31.5198L25 30.6335L23.8 31.5198L24.2 30.0427L23 29.058H24.5L25 27.5809ZM17 27.5809L17.5 29.058H19L17.8 30.0427L18.2 31.5198L17 30.6335L15.8 31.5198L16.2 30.0427L15 29.058H16.5L17 27.5809ZM8.99999 27.5809L9.49999 29.058H11L9.79999 30.0427L10.2 31.5198L8.99999 30.6335L7.79999 31.5198L8.19999 30.0427L6.99999 29.058H8.49999L8.99999 27.5809ZM11.8 13.7946L13 12.9083L14.2 13.7946L13.7 12.3175L14.9 11.3328H13.4L13 9.85566L12.5 11.3328H11.1L12.3 12.219L11.8 13.7946ZM3.79999 25.6114L4.99999 24.7251L6.19999 25.6114L5.69999 24.1343L6.89999 23.1496H5.49999L4.99999 21.6725L4.49999 23.1496H3.49999C3.49999 23.248 3.39999 23.3465 3.39999 23.445L4.19999 24.0358L3.79999 25.6114Z" fill="white"/>
</svg>
